# xmcd CD database file
#
# Track frame offsets:
#	151
#	17094
#	46459
#	92062
#	118762
#	154161
#	189283
#	208133
#	289533
#
# Disc length: 4244 seconds
#
# Revision: 0
# Processed by: cddbd v1.4PL0 Copyright (c) Steve Scherf et al.
# Submitted via: CDex 1.50
#
DISCID=78109209
DTITLE=Ten Years After - Undead (original full album)
DYEAR=1968
DGENRE=Blues
TTITLE0=Rock your mama
TTITLE1=Spoonful
TTITLE2=I may be wrong, but I won't be wrong always
TTITLE3=Summertime - Shantung cabbage
TTITLE4=Spider in your web
TTITLE5=Woodchopper's ball
TTITLE6=Standing at the crossroads
TTITLE7=I can't keep from crying sometimes - Extension on one chord
TTITLE8=I'm going home
EXTD=YEAR: 1968
EXTT0=
EXTT1=
EXTT2=
EXTT3=
EXTT4=
EXTT5=
EXTT6=
EXTT7=
EXTT8=
PLAYORDER=
